<svg width="128" height="128" viewBox="0 0 128 128" fill="none" xmlns="http://www.w3.org/2000/svg">
<path d="M0 64C0 28.6538 28.6538 0 64 0V0C99.3462 0 128 28.6538 128 64V64C128 99.3462 99.3462 128 64 128V128C28.6538 128 0 99.3462 0 64V64Z" fill="url(#paint0_linear_8_163)"/>
<path d="M16 64C16 37.4903 37.4903 16 64 16V16C90.5097 16 112 37.4903 112 64V64C112 90.5097 90.5097 112 64 112V112C37.4903 112 16 90.5097 16 64V64Z" fill="url(#paint1_linear_8_163)"/>
<path d="M38.3906 64C38.3906 49.8563 49.8563 38.3906 64 38.3906V38.3906C78.1437 38.3906 89.6094 49.8563 89.6094 64V64C89.6094 78.1437 78.1437 89.6094 64 89.6094V89.6094C49.8563 89.6094 38.3906 78.1437 38.3906 64V64Z" fill="#F59E0B" fill-opacity="0.2"/>
<path d="M56 64C56 59.5817 59.5817 56 64 56V56C68.4183 56 72 59.5817 72 64V64C72 68.4183 68.4183 72 64 72V72C59.5817 72 56 68.4183 56 64V64Z" fill="#1C1917"/>
<path d="M64 123.5C31.1391 123.5 4.5 96.8609 4.5 64C4.5 31.1391 31.1391 4.5 64 4.5C96.8609 4.5 123.5 31.1391 123.5 64C123.5 96.8609 96.8609 123.5 64 123.5Z" stroke="#292524"/>
<path d="M64 119.5C33.3482 119.5 8.5 94.6518 8.5 64C8.5 33.3482 33.3482 8.5 64 8.5C94.6518 8.5 119.5 33.3482 119.5 64C119.5 94.6518 94.6518 119.5 64 119.5Z" stroke="#292524"/>
<path d="M64 115.5C35.5573 115.5 12.5 92.4427 12.5 64C12.5 35.5573 35.5573 12.5 64 12.5C92.4427 12.5 115.5 35.5573 115.5 64C115.5 92.4427 92.4427 115.5 64 115.5Z" stroke="#292524"/>
<path d="M64 111.5C37.7665 111.5 16.5 90.2335 16.5 64C16.5 37.7665 37.7665 16.5 64 16.5C90.2335 16.5 111.5 37.7665 111.5 64C111.5 90.2335 90.2335 111.5 64 111.5Z" stroke="#292524"/>
<path d="M64 107.5C39.9756 107.5 20.5 88.0244 20.5 64C20.5 39.9756 39.9756 20.5 64 20.5C88.0244 20.5 107.5 39.9756 107.5 64C107.5 88.0244 88.0244 107.5 64 107.5Z" stroke="#292524"/>
<path d="M64 103.5C42.1848 103.5 24.5 85.8152 24.5 64C24.5 42.1848 42.1848 24.5 64 24.5C85.8152 24.5 103.5 42.1848 103.5 64C103.5 85.8152 85.8152 103.5 64 103.5Z" stroke="#292524"/>
<path d="M64 99.5C44.3939 99.5 28.5 83.6061 28.5 64C28.5 44.3939 44.3939 28.5 64 28.5C83.6061 28.5 99.5 44.3939 99.5 64C99.5 83.6061 83.6061 99.5 64 99.5Z" stroke="#292524"/>
<path d="M64 95.5C46.603 95.5 32.5 81.397 32.5 64C32.5 46.603 46.603 32.5 64 32.5C81.397 32.5 95.5 46.603 95.5 64C95.5 81.397 81.397 95.5 64 95.5Z" stroke="#292524"/>
<defs>
<linearGradient id="paint0_linear_8_163" x1="-13.2548" y1="77.2548" x2="77.2548" y2="167.765" gradientUnits="userSpaceOnUse">
<stop stop-color="#1C1917"/>
<stop offset="1" stop-color="#292524"/>
</linearGradient>
<linearGradient id="paint1_linear_8_163" x1="6.05887" y1="73.9411" x2="73.9411" y2="141.823" gradientUnits="userSpaceOnUse">
<stop stop-color="#292524"/>
<stop offset="1" stop-color="#44403C"/>
</linearGradient>
</defs>
</svg>
